<svg xmlns="http://www.w3.org/2000/svg" version="1.1" xmlns:xlink="http://www.w3.org/1999/xlink" xmlns:svgjs="http://svgjs.dev/svgjs" width="100%" height="100%" viewBox="0 0 1000 600"><rect width="1000" height="600" x="0" y="0" fill="#008080"/><g><circle r="166.66666666666666" cx="323.3507639567057" cy="345.5729397728694" fill="#008080 " transform="matrix(0.7977839193552627,0,0,0.7977839193552627,0,24.307473763373068)"/><path d="M321.2786257833202 420.5729410993651L321.2786257833202 420.5729410993651Q306.1404838335533 420.5729410993651 293.70763721321237 416.54377784277307Q281.2747905928715 412.51461458618115 272.78476801648134 405.8664952128044L272.78476801648134 405.8664952128044L282.74255720777285 389.2893663856832Q290.196509232468 395.5057896958537 299.52114419772363 399.44861373980433Q308.8457791629793 403.39143778375507 321.2786257833202 403.39143778375507L321.2786257833202 403.39143778375507Q336.1865298327104 403.39143778375507 344.9067903094773 397.17501447358467Q353.59827104869703 390.95859116341416 353.59827104869703 380.3964274836339L353.59827104869703 380.3964274836339Q353.59827104869703 374.38146233629305 351.12321361964774 369.7191448536652Q348.6193764530513 365.0568273710374 341.48200154137413 360.59596805123914Q334.31584689214986 356.1351087314409 320.4440133944547 350.95475597296553L320.4440133944547 350.95475597296553Q305.53610934506446 345.17002872600136 296.614390705468 339.2414027913018Q287.69267206587153 333.34155659414927 283.8649669721092 325.77248561926586Q280.0372618783468 318.23219438192945 280.0372618783468 307.8714888649787L280.0372618783468 307.8714888649787Q280.0372618783468 297.510783348028 285.7356499126697 289.10709998427905Q291.43403794699265 280.7034166205301 302.5142369026205 275.6381828122431Q313.59443585824835 270.57294900395607 329.3657320340512 270.57294900395607L329.3657320340512 270.57294900395607Q342.2014949800513 270.57294900395607 352.44708154681365 273.16312538319374Q362.7214478511231 275.7533017624314 372.44899914203796 280.50195845770054L372.44899914203796 280.50195845770054L365.19650528017246 297.2805454476513Q358.1454695811365 293.136263240871 348.73449540323963 290.3446286988037Q339.2947414877956 287.5529941567364 328.9340359708449 287.5529941567364L328.9340359708449 287.5529941567364Q315.2636606359793 287.5529941567364 307.37801254807795 292.9348050780414Q299.52114419772363 298.31661599934637 299.52114419772363 306.83541831328364L299.52114419772363 306.83541831328364Q299.52114419772363 312.2172292345886 301.79474346394335 316.3615114413689Q304.0683427301631 320.5057936481492 310.8028013161811 324.44861769209984Q317.5372599021991 328.3626619985035 331.00617707423504 333.34155659414927L331.00617707423504 333.34155659414927Q347.180389575697 339.3565217414901 356.59136375359395 345.97586137731975Q366.03111766903794 352.6239807506965 369.9739417129886 360.3945098884096Q373.91676575693936 368.16503902612254 373.91676575693936 378.094048479867L373.91676575693936 378.094048479867Q373.91676575693936 391.56296565190297 367.1823071709214 401.1178385175353Q360.4478485849034 410.6439316456206 348.53303724041 415.6228262412664Q336.6182258959167 420.5729410993651 321.2786257833202 420.5729410993651Z " fill="#ffffff" transform="matrix(0.7977839193552627,0,0,0.7977839193552627,0,24.307473763373068)"/><path d="M609.9176126087644 388.06426596120326L609.9176126087644 388.06426596120326Q598.5026825067974 388.06426596120326 589.1276828793265 385.0260716374858Q579.7526832518555 381.98787731376837 573.3507737840222 376.97485667963457L573.3507737840222 376.97485667963457L580.8594540412097 364.47485717634Q586.480113540087 369.16235699007547 593.5113632606902 372.13544714971323Q600.5426129812935 375.108537309351 609.9176126087644 375.108537309351L609.9176126087644 375.108537309351Q621.1589316065189 375.108537309351 627.7344521785645 370.4210374956155Q634.2882713625837 365.73353768188 634.2882713625837 357.76912827613495L634.2882713625837 357.76912827613495Q634.2882713625837 353.23353817858543 632.4219519923 349.7179133182838Q630.53393123399 346.2022884579821 625.1519870034048 342.83857331386633Q619.748341384793 339.4748581697507 609.2882723559943 335.5686083249711L609.2882723559943 335.5686083249711Q598.0469533582399 331.2066293316339 591.3195230700084 326.73614339816396Q584.5920927817768 322.2873588527205 581.7058081742452 316.579893801737Q578.8195235667137 310.89413013878004 578.8195235667137 303.08163044922094L578.8195235667137 303.08163044922094Q578.8195235667137 295.2691307596618 583.1163983959713 288.9323254559082Q587.4132732252287 282.5955201521547 595.7683076154517 278.77607585948135Q604.1233420056748 274.95663156680797 616.0157026442258 274.95663156680797L616.0157026442258 274.95663156680797Q625.6945217040685 274.95663156680797 633.4202158415216 276.9097564891978Q641.1676113670011 278.8628814115875 648.502680519976 282.4436104359688L648.502680519976 282.4436104359688L643.0339307372845 295.0955196554494Q637.717090670779 291.97051977962565 630.6207367860962 289.86548514105004Q623.5026815133867 287.7604505024743 615.6901818238276 287.7604505024743L615.6901818238276 287.7604505024743Q605.3820225112148 287.7604505024743 599.4358421919393 291.8186100634398Q593.5113632606902 295.87676962440526 593.5113632606902 302.30038048026506L593.5113632606902 302.30038048026506Q593.5113632606902 306.3585400412305 595.2257729147879 309.48353991705415Q596.9401825688856 312.6085397928778 602.018307367099 315.5816299525156Q607.0964321653124 318.53301872412686 617.2526817617394 322.2873588527205L617.2526817617394 322.2873588527205Q629.4488618326624 326.82294895027013 636.5452157173452 331.8142681963773Q643.6632709900547 336.8272888305111 646.6363611496923 342.6866635976805Q649.6094513093302 348.54603836484984 649.6094513093302 356.03301723401074L649.6094513093302 356.03301723401074Q649.6094513093302 366.1892668304377 644.5313265111168 373.39412765525327Q639.4532017129033 380.57728709204235 630.4688270699103 384.3316272206361Q621.4844524269173 388.06426596120326 609.9176126087644 388.06426596120326ZM683.9844499433906 386.1979465909197L669.9219505021841 386.1979465909197L669.9219505021841 270.57295118544425L683.9844499433906 270.57295118544425L683.9844499433906 317.9253798593833Q688.3464289367276 311.5017690035236 695.0738592249592 307.29169972637226Q701.7795881251642 303.08163044922094 710.8507683202635 303.08163044922094L710.8507683202635 303.08163044922094Q724.6094483290982 303.08163044922094 731.4019827814092 311.3498592873377Q738.1945172337204 319.63978951348105 738.1945172337204 333.22485841810334L738.1945172337204 333.22485841810334L738.1945172337204 386.1979465909197L724.1320177925139 386.1979465909197L724.1320177925139 334.7873583560152Q724.1320177925139 326.04169898131425 720.0738582315486 320.72485891480864Q716.015698670583 315.40801884830313 708.6589281295816 315.40801884830313L708.6589281295816 315.40801884830313Q701.4757686927925 315.40801884830313 694.987053672853 320.4861436465166Q688.4983386529135 325.5642684447301 683.9844499433906 332.44360844914746L683.9844499433906 332.44360844914746L683.9844499433906 386.1979465909197ZM796.6363551892281 388.06426596120326L796.6363551892281 388.06426596120326Q785.0695153710752 388.06426596120326 775.8464254597901 382.68232173061807Q766.6233355485052 377.3003775000329 761.3933010341058 367.68666260426977Q756.1632665197066 358.0729477085068 756.1632665197066 345.57294820521207L756.1632665197066 345.57294820521207Q756.1632665197066 332.44360844914746 761.480106586212 322.9166991054905Q766.7969466527176 313.3897897618337 775.9983351759762 308.224859411514Q785.2214250872613 303.08163044922094 796.6363551892281 303.08163044922094L796.6363551892281 303.08163044922094Q808.0295839031686 303.08163044922094 817.187569650374 308.224859411514Q826.323854009553 313.3897897618337 831.7057982401383 322.82989355338435Q837.1094438587501 332.2916987329615 837.1094438587501 345.26912877284036L837.1094438587501 345.26912877284036Q837.1094438587501 358.22485742469263 831.7926037922444 367.83857232045574Q826.4757637257388 377.45228721621874 817.3394793665599 382.76912728272424Q808.2031950073809 388.06426596120326 796.6363551892281 388.06426596120326ZM796.6363551892281 375.5642664579087L796.6363551892281 375.5642664579087Q808.9844449763369 375.5642664579087 815.8420835927278 367.2092320676856Q822.7214235971452 358.85419767746265 822.7214235971452 345.57294820521207L822.7214235971452 345.57294820521207Q822.7214235971452 337.45662908328126 819.2926042889497 330.64239324294346Q815.8420835927278 323.84985879063237 809.9827088255585 319.70489367756073Q804.1233340583891 315.5816299525156 796.6363551892281 315.5816299525156L796.6363551892281 315.5816299525156Q784.2882654021195 315.5816299525156 777.4089253977021 323.6979490744465Q770.5295853932847 331.8142681963773 770.5295853932847 345.26912877284036L770.5295853932847 345.26912877284036Q770.5295853932847 353.3854478947713 773.9801060895066 360.32989206326823Q777.4089253977021 367.2960376197919 783.2683001648714 371.4410027328635Q789.1276749320408 375.5642664579087 796.6363551892281 375.5642664579087ZM869.7483314506861 420.57294522497995L855.6858320094794 420.57294522497995L855.6858320094794 325.73787954894243Q855.6858320094794 320.4210394824369 853.1250682223462 318.14239373964887Q850.5426030471864 315.8854493848873 846.484443486221 315.8854493848873L846.484443486221 315.8854493848873L849.4358322578322 304.9479498195045Q863.8238525194369 304.9479498195045 867.4045815438182 316.36287992147146L867.4045815438182 316.36287992147146Q868.9670814817301 314.0191300146037 872.4827063420317 310.89413013878004Q875.9983312023334 307.7691302629564 881.2500671047591 305.4253803560887Q886.4801016191585 303.08163044922094 893.1858305193633 303.08163044922094L893.1858305193633 303.08163044922094Q902.5608301468345 303.08163044922094 910.7639548208714 307.98614414322196Q918.9670794949087 312.91235922524953 923.9801001290424 322.2222546886408Q928.9714193751496 331.5104487640056 928.9714193751496 344.7916982362562L928.9714193751496 344.7916982362562Q928.9714193751496 357.76912827613495 923.9801001290424 367.5347528880839Q918.9670794949087 377.3003775000329 910.937565925084 382.68232173061807Q902.8863509672327 388.06426596120326 893.5113513397617 388.06426596120326L893.5113513397617 388.06426596120326Q886.3281919029727 388.06426596120326 880.0781921513252 385.17798135367167Q873.828192399678 382.2916967461401 869.7483314506861 378.53735661754644L869.7483314506861 378.53735661754644L869.7483314506861 420.57294522497995ZM890.6901708963097 375.5642664579087L890.6901708963097 375.5642664579087Q901.323851029321 375.5642664579087 907.9644757654461 367.2092320676856Q914.6051005015714 358.85419767746265 914.6051005015714 345.26912877284036L914.6051005015714 345.26912877284036Q914.6051005015714 335.8941291453694 911.2413853574557 329.1666988571379Q907.8776702133399 322.43926856890636 902.343816266569 318.85853954452506Q896.7882609317713 315.2561091321173 890.0608306435398 315.2561091321173L890.0608306435398 315.2561091321173Q883.3551017433348 315.2561091321173 877.951456124723 318.61982427623303Q872.5695118941379 321.9835394203488 869.7483314506861 325.8897892651284L869.7483314506861 325.8897892651284L869.7483314506861 365.8854473980659Q873.828192399678 370.0955166752172 879.1233310781569 372.82989156656294Q884.4401711446625 375.5642664579087 890.6901708963097 375.5642664579087ZM1002.734437277404 386.1979465909197L939.9089189405325 386.1979465909197L939.9089189405325 375.108537309351L984.7656879914181 317.14412989042745L940.8420786256744 317.14412989042745L940.8420786256744 304.9479498195045L1001.953187308448 304.9479498195045L1001.953187308448 315.73353966870144L957.2483279737486 373.6979470876251L1002.734437277404 373.6979470876251L1002.734437277404 386.1979465909197ZM1050.2170742795024 388.06426596120326L1050.2170742795024 388.06426596120326Q1040.0608246830757 388.06426596120326 1031.7925958449587 382.9210369989102Q1023.5026656188155 377.75610664859056 1018.5764505367878 368.3160028570399Q1013.6719368427867 358.85419767746265 1013.6719368427867 346.05037874179624L1013.6719368427867 346.05037874179624Q1013.6719368427867 333.85419867087336 1018.5764505367878 324.1753796110307Q1023.5026656188155 314.4748591631614 1032.1832208294368 308.76739411217784Q1040.8420746520314 303.08163044922094 1052.1050950378126 303.08163044922094L1052.1050950378126 303.08163044922094Q1059.1363447584158 303.08163044922094 1064.8438098093993 305.49048452016837Q1070.5295734723563 307.9210399791423 1074.7613441375343 311.5017690035236L1074.7613441375343 311.5017690035236L1074.7613441375343 304.9479498195045L1087.5651630732004 304.9479498195045L1087.5651630732004 366.5147876508359Q1087.5651630732004 372.43926658208494 1090.4514476807321 374.24048178828883Q1093.3594336762903 376.04169699449284 1096.7882529844856 376.04169699449284L1096.7882529844856 376.04169699449284L1093.815162824848 386.9791965598757Q1078.8195036984998 386.9791965598757 1075.6945038226759 374.7830164889527L1075.6945038226759 374.7830164889527Q1072.0920734102679 379.7960371230865 1065.9288792107268 383.9410022361582Q1059.7656850111857 388.06426596120326 1050.2170742795024 388.06426596120326ZM1053.342074155326 375.5642664579087L1053.342074155326 375.5642664579087Q1059.2882544746017 375.5642664579087 1064.605094541107 372.6779818503771Q1069.921934607613 369.7916972428455 1073.502663631994 365.4080168614817L1073.502663631994 365.4080168614817L1073.502663631994 321.83162970416294Q1069.2925943548425 318.85853954452506 1064.2144695566294 317.05732433832117Q1059.1363447584158 315.2561091321173 1053.5156852595387 315.2561091321173L1053.5156852595387 315.2561091321173Q1046.007005002351 315.2561091321173 1040.2995399513675 319.0972548128172Q1034.592074900384 322.9166991054905 1031.3151653083746 329.7092335578017Q1028.0382557163653 336.5017680101128 1028.0382557163653 345.57294820521207L1028.0382557163653 345.57294820521207Q1028.0382557163653 354.318607579913 1031.3151653083746 361.1111420322242Q1034.592074900384 367.9253778725619 1040.3863455034739 371.74482216523523Q1046.1589147185368 375.5642664579087 1053.342074155326 375.5642664579087Z " fill="#ffff" transform="matrix(0.7977839193552627,0,0,0.7977839193552627,0,24.307473763373068)"/></g></svg>